<?xml version="1.0" encoding="UTF-8"?>
<svg id="Layer_2" data-name="Layer 2" xmlns="http://www.w3.org/2000/svg" viewBox="0 0 201.26 201.26">
  <defs>
    <style>
      .cls-1 {
        fill: #ddd3d3;
      }

      .cls-2 {
        fill: #577574;
      }

      .cls-3 {
        fill: #5d6b6b;
      }
    </style>
  </defs>
  <g id="Layer_1-2" data-name="Layer 1">
    <g>
      <g>
        <path class="cls-3" d="M103.78,102.72C44.69,92.41,16.73,60.59,3.53,31.66c-1.96,5.23-3.03,10.9-3.03,16.82v104.3c0,26.5,21.48,47.98,47.98,47.98h104.3c21.78,0,40.16-14.5,46.02-34.38-19.96-29.21-50.52-55.89-95.02-63.65Z"/>
        <path class="cls-1" d="M152.78.5H48.48C27.9.5,10.34,13.46,3.53,31.66c13.2,28.93,41.16,60.75,100.25,71.06,44.5,7.76,75.06,34.44,95.02,63.65,1.28-4.31,1.96-8.88,1.96-13.6V48.48c0-26.5-21.48-47.98-47.98-47.98Z"/>
      </g>
      <path class="cls-2" d="M152.35,201.26H48.91c-26.97,0-48.91-21.94-48.91-48.91V48.91C0,21.94,21.94,0,48.91,0h103.43c26.97,0,48.91,21.94,48.91,48.91v103.43c0,26.97-21.94,48.91-48.91,48.91ZM48.91,1C22.49,1,1,22.49,1,48.91v103.43c0,26.42,21.49,47.91,47.91,47.91h103.43c26.42,0,47.91-21.49,47.91-47.91V48.91c0-26.42-21.49-47.91-47.91-47.91H48.91Z"/>
    </g>
  </g>
</svg>