<?xml version="1.0" encoding="UTF-8"?>
<svg id="Layer_2" data-name="Layer 2" xmlns="http://www.w3.org/2000/svg" viewBox="0 0 702.94 113.09">
  <g id="Layer_1-2" data-name="Layer 1">
    <g>
      <path d="M0,111.78V3.28h12.29v48.19h63.1V3.28h12.29v108.5h-12.29v-48.35H12.29v48.35H0Z"/>
      <path d="M146.19,113.09c-7.98,0-14.94-1.88-20.9-5.65-5.96-3.77-10.57-8.88-13.85-15.32-3.28-6.45-4.92-13.55-4.92-21.31s1.64-15,4.92-21.39c3.28-6.39,7.89-11.47,13.85-15.24,5.95-3.77,12.92-5.65,20.9-5.65,6.77,0,12.59,1.31,17.46,3.93,4.86,2.62,8.82,6.17,11.88,10.65v-13.28h12.29v81.95h-12.29v-13.11c-3.06,4.37-7.02,7.87-11.88,10.49-4.86,2.62-10.68,3.93-17.46,3.93ZM147.83,101.94c6.12,0,11.28-1.42,15.49-4.26,4.21-2.84,7.4-6.64,9.59-11.39,2.18-4.75,3.28-9.92,3.28-15.49s-1.09-10.87-3.28-15.57c-2.19-4.7-5.38-8.47-9.59-11.31-4.21-2.84-9.37-4.26-15.49-4.26s-11.2,1.42-15.57,4.26c-4.37,2.84-7.7,6.61-10,11.31-2.29,4.7-3.44,9.89-3.44,15.57s1.15,10.74,3.44,15.49c2.29,4.75,5.63,8.55,10,11.39,4.37,2.84,9.56,4.26,15.57,4.26Z"/>
      <path d="M209.13,111.78V29.83h12.29v20.16c.44-1.42,1.28-3.3,2.54-5.65,1.25-2.35,3.09-4.73,5.49-7.13,2.4-2.4,5.43-4.45,9.1-6.15,3.66-1.69,8-2.54,13.03-2.54h.82v12.29h-1.48c-6.12,0-11.39,1.67-15.82,5-4.42,3.33-7.81,7.65-10.16,12.95-2.35,5.3-3.52,10.96-3.52,16.96v36.06h-12.29Z"/>
      <path d="M265.67,111.78V29.83h12.29v12.46c1.86-3.28,4.81-6.39,8.85-9.34,4.04-2.95,9.4-4.42,16.06-4.42,5.46,0,10.51,1.45,15.16,4.34,4.64,2.9,8.28,6.96,10.9,12.21,1.09-1.86,2.81-4.1,5.16-6.72,2.35-2.62,5.43-4.92,9.26-6.88,3.82-1.97,8.41-2.95,13.77-2.95s10.16,1.37,14.75,4.1c4.59,2.73,8.33,6.64,11.23,11.72,2.89,5.08,4.34,11.06,4.34,17.95v49.5h-12.29v-49.17c0-6.88-1.94-12.43-5.82-16.64-3.88-4.21-8.71-6.31-14.5-6.31s-11.2,2.02-15.57,6.06c-4.37,4.04-6.56,9.73-6.56,17.05v49h-12.29v-49.17c0-6.88-1.94-12.43-5.82-16.64-3.88-4.21-8.71-6.31-14.5-6.31s-11.2,2.02-15.57,6.06c-4.37,4.04-6.56,9.73-6.56,17.05v49h-12.29Z"/>
      <path d="M443.49,113.09c-8.31,0-15.52-1.88-21.63-5.65-6.12-3.77-10.82-8.88-14.09-15.32-3.28-6.45-4.92-13.55-4.92-21.31s1.64-15,4.92-21.39c3.28-6.39,7.97-11.47,14.09-15.24,6.12-3.77,13.33-5.65,21.63-5.65s15.65,1.88,21.72,5.65,10.74,8.85,14.01,15.24c3.28,6.39,4.92,13.52,4.92,21.39s-1.64,14.86-4.92,21.31c-3.28,6.45-7.95,11.55-14.01,15.32-6.06,3.77-13.3,5.65-21.72,5.65ZM443.49,101.94c6.12,0,11.28-1.42,15.49-4.26,4.21-2.84,7.4-6.64,9.59-11.39,2.18-4.75,3.28-9.92,3.28-15.49s-1.09-10.87-3.28-15.57c-2.19-4.7-5.38-8.47-9.59-11.31-4.21-2.84-9.37-4.26-15.49-4.26s-11.15,1.42-15.41,4.26c-4.26,2.84-7.49,6.61-9.67,11.31-2.19,4.7-3.28,9.89-3.28,15.57s1.09,10.74,3.28,15.49c2.18,4.75,5.41,8.55,9.67,11.39,4.26,2.84,9.4,4.26,15.41,4.26Z"/>
      <path d="M500.36,111.78V29.83h12.29v12.78c2.95-3.93,6.56-7.26,10.82-10,4.26-2.73,9.72-4.1,16.39-4.1,5.68,0,11.01,1.34,15.98,4.02,4.97,2.68,9.01,6.67,12.13,11.96,3.11,5.3,4.67,11.83,4.67,19.59v47.69h-12.29v-47.37c0-7.43-2.13-13.41-6.39-17.95-4.26-4.53-9.78-6.8-16.55-6.8-4.59,0-8.74,1.04-12.46,3.11-3.72,2.08-6.69,5-8.93,8.77-2.24,3.77-3.36,8.11-3.36,13.03v47.2h-12.29Z"/>
      <path d="M592.64,16.06V0h13.28v16.06h-13.28ZM593.13,111.78V29.83h12.29v81.95h-12.29Z"/>
      <path d="M661.31,113.09c-7.98,0-14.94-1.88-20.9-5.65-5.96-3.77-10.57-8.88-13.85-15.32-3.28-6.45-4.92-13.55-4.92-21.31s1.64-15,4.92-21.39c3.28-6.39,7.89-11.47,13.85-15.24,5.95-3.77,12.92-5.65,20.9-5.65,6.77,0,12.59,1.31,17.45,3.93,4.86,2.62,8.82,6.17,11.88,10.65v-13.28h12.29v81.95h-12.29v-13.11c-3.06,4.37-7.02,7.87-11.88,10.49-4.86,2.62-10.68,3.93-17.45,3.93ZM662.94,101.94c6.12,0,11.28-1.42,15.49-4.26,4.21-2.84,7.4-6.64,9.59-11.39,2.18-4.75,3.28-9.92,3.28-15.49s-1.09-10.87-3.28-15.57c-2.19-4.7-5.38-8.47-9.59-11.31-4.21-2.84-9.37-4.26-15.49-4.26s-11.2,1.42-15.57,4.26c-4.37,2.84-7.7,6.61-10,11.31-2.29,4.7-3.44,9.89-3.44,15.57s1.15,10.74,3.44,15.49c2.29,4.75,5.63,8.55,10,11.39,4.37,2.84,9.56,4.26,15.57,4.26Z"/>
    </g>
  </g>
</svg>